<svg width="30" height="30" viewBox="0 0 30 30" fill="none" xmlns="http://www.w3.org/2000/svg">
<path d="M15.0006 0C6.71667 0 0.00100005 6.71587 0.00100005 14.9998C0.00100005 23.2836 6.71667 30 15.0006 30C23.2846 30 30.0008 23.2836 30.0008 14.9998C30.0008 6.71567 23.2846 0 15.0006 0ZM15.0006 5.91476C17.5038 5.91476 19.5333 7.94398 19.5333 10.4473C19.5333 12.9509 17.5041 14.9802 15.0006 14.9802C12.4972 14.9802 10.4681 12.9509 10.4681 10.4473C10.4681 7.94398 12.4975 5.91476 15.0006 5.91476ZM16.8703 21.2559H16.8702V22.8969V23.0997H15.0438H14.9573H8.38698C8.38698 18.6323 10.8172 17.0426 12.4115 15.6154C13.1839 16.0304 14.0647 16.2685 15.0007 16.2755C15.9366 16.2685 16.8176 16.0304 17.5895 15.6154C18.3038 16.2547 19.1848 16.9275 19.9406 17.876H19.2131V18.9134V20.2185H17.9077H16.8703V21.2559ZM21.8913 22.8969V25.2395H20.2503V22.8969H17.9075V21.2559H20.2503V18.9134H21.8911V21.2559H24.2334V22.8969H21.8913Z" fill="#1F3C60"/>
</svg>
