<svg width="30" height="30" viewBox="0 0 30 30" fill="none" xmlns="http://www.w3.org/2000/svg">
<path d="M15.0007 0C6.71664 0 0.00100005 6.71584 0.00100005 14.9996C0.00100005 23.2834 6.71664 30 15.0006 30C23.2846 30 30.0007 23.2837 30.0007 14.9996C30.0007 6.71555 23.2847 0 15.0007 0ZM4.07413 20.6497C4.07413 15.9639 8.18936 15.9649 9.10256 14.7397L9.20706 14.181C7.92405 13.5305 7.01835 11.9632 7.01835 10.1296C7.01835 7.71415 8.58956 5.75574 10.5273 5.75574C12.0531 5.75574 13.3478 6.97215 13.831 8.66756C11.89 9.28436 10.4542 11.389 10.4542 13.8908C10.4542 15.6132 11.1332 17.1968 12.2479 18.2029C12.0689 18.2947 11.8698 18.3883 11.6986 18.4685C10.7997 18.8902 9.55366 19.4764 8.65476 20.6497H4.07413ZM15.0463 24.4107V24.4105H14.9547H8.54756C8.54756 19.7248 12.6628 19.7261 13.576 18.5009L13.6805 17.9422C12.3975 17.2917 11.4918 15.7244 11.4918 13.8908C11.4918 11.4754 13.063 9.51696 15.0007 9.51696C16.9384 9.51696 18.5096 11.4754 18.5096 13.8908C18.5096 15.7086 17.62 17.2666 16.3541 17.9269L16.4731 18.5621C17.475 19.7279 21.4533 19.8039 21.4533 24.4107H15.0463ZM21.3462 20.6499V20.6497C20.447 19.4766 19.201 18.8905 18.3021 18.4688C18.1252 18.3858 17.9291 18.2937 17.7538 18.2037C18.8675 17.1963 19.5473 15.6093 19.5473 13.8908C19.5473 11.3893 18.112 9.28506 16.1715 8.66806C16.6544 6.97235 17.9491 5.75594 19.4752 5.75594C21.4131 5.75594 22.9842 7.71435 22.9842 10.1298C22.9842 11.9476 22.0945 13.5054 20.8286 14.1659L20.9476 14.8011C21.9495 15.9667 25.9279 16.0426 25.9279 20.6499H21.3462Z" fill="#1F3C60"/>
</svg>
