<svg width="30" height="30" viewBox="0 0 30 30" fill="none" xmlns="http://www.w3.org/2000/svg">
<path d="M15 0C6.71602 0 0 6.71582 0 15C0 23.2842 6.71602 30 15 30C23.2842 30 30 23.2842 30 15C30 6.71582 23.2842 0 15 0ZM8.9484 21.1226L5.23067 22.1185L6.24841 18.3211C5.54739 17.1161 5.14327 15.716 5.14327 14.2213C5.14327 9.71372 8.79749 6.0592 13.3055 6.0592C17.8128 6.0592 21.4673 9.71372 21.4673 14.2213C21.4673 18.7288 17.8128 22.3835 13.3055 22.3835C11.7027 22.3839 10.2094 21.9206 8.9484 21.1226ZM24.7768 23.6984L21.3949 22.7925C20.2472 23.5182 18.8891 23.9399 17.4318 23.9399C16.3927 23.9399 15.4046 23.7257 14.5069 23.34C19.0134 22.75 22.5053 18.8871 22.5053 14.222C22.5053 12.8701 22.2093 11.5868 21.6836 10.4292C23.6019 11.772 24.8567 13.9964 24.8567 16.5148C24.8567 17.8744 24.4894 19.1478 23.8517 20.2442L24.7768 23.6984Z" fill="#1F3C60"/>
</svg>
