<svg width="54" height="50" viewBox="0 0 54 50" fill="none" xmlns="http://www.w3.org/2000/svg">
<path d="M14.4274 34.0095C13.1058 33.8413 11.8443 33.357 10.7496 32.5977C9.65497 31.8383 8.7595 30.8263 8.13911 29.6473C7.51871 28.4683 7.19167 27.1572 7.18569 25.8249C7.17972 24.4927 7.49498 23.1787 8.10477 21.9942C8.71457 20.8097 9.60092 19.7897 10.6887 19.0205C11.7765 18.2514 13.0337 17.7558 14.3537 17.5758C15.6737 17.3958 17.0177 17.5366 18.2717 17.9864C19.5257 18.4362 20.6528 19.1816 21.5575 20.1596" stroke="#4B00AC" stroke-linecap="round" stroke-linejoin="round"/>
<path d="M21.5566 20.1594C21.9311 18.8731 22.5617 17.6757 23.4104 16.6392C24.2592 15.6026 25.3086 14.7481 26.4957 14.1271C27.6828 13.5061 28.9831 13.1313 30.3186 13.0253C31.6541 12.9192 32.9973 13.0841 34.2676 13.5099C35.5378 13.9358 36.7089 14.6139 37.7106 15.5036C38.7123 16.3932 39.5239 17.4761 40.0968 18.6871C40.6697 19.8982 40.992 21.2125 41.0444 22.5512C41.0967 23.8899 40.8781 25.2254 40.4016 26.4775M40.4085 26.4713C41.1353 26.4975 41.8494 26.6706 42.5075 26.9802C43.1657 27.2897 43.7544 27.7294 44.238 28.2726C44.7217 28.8158 45.0903 29.4514 45.3217 30.1409C45.5532 30.8304 45.6425 31.5597 45.5845 32.2847C45.5265 33.0097 45.3222 33.7155 44.984 34.3594C44.6459 35.0034 44.1808 35.5722 43.6169 36.0315C43.053 36.4909 42.4019 36.8313 41.7029 37.0322C41.0038 37.2331 40.2713 37.2904 39.5496 37.2006M14.4274 34.0095L39.5496 37.2006" stroke="#4B00AC" stroke-linecap="round" stroke-linejoin="round"/>
<path fill-rule="evenodd" clip-rule="evenodd" d="M12.681 25.1622L12.3157 26.9927C12.29 27.1215 12.3877 27.2245 12.4925 27.1791C13.2348 26.8574 15.5881 25.6287 17.1038 22.4637C17.1734 22.3184 17.0556 22.1646 16.9295 22.2355C16.2211 22.6332 14.6804 23.4452 13.782 23.5233C13.782 23.5233 14.3943 23.1825 14.8096 22.5933C14.8295 22.565 14.8418 22.5316 14.8451 22.4967C14.8484 22.4618 14.8425 22.4267 14.8282 22.3953L13.8429 20.3752C13.7845 20.2555 13.6299 20.2824 13.586 20.42L12.9451 22.4211L10.9496 23.8443C10.8496 23.9156 10.8467 24.085 10.9444 24.1424L12.681 25.1622V25.1622ZM15.9315 24.8353C15.7973 24.988 15.5101 25.3007 15.2584 25.4822C15.2082 25.5185 15.2053 25.5896 15.2524 25.6303L16.3407 26.5712C16.4062 26.6278 16.5099 26.5837 16.5084 26.4998C16.501 26.1152 16.4417 25.308 16.0915 24.8437C16.0525 24.792 15.9742 24.7869 15.9315 24.8353V24.8353Z" fill="#4B00AC"/>
<path fill-rule="evenodd" clip-rule="evenodd" d="M23.4392 30.0982L22.8192 33.2371C22.7755 33.4578 22.9379 33.6338 23.1128 33.5553C24.3525 32.9997 28.2837 30.8803 30.8299 25.4479C30.9467 25.1986 30.7513 24.9356 30.5406 25.0579C29.3571 25.7437 26.7832 27.1442 25.2847 27.2833C25.2847 27.2833 26.3077 26.6958 27.0037 25.6837C27.0371 25.6351 27.0578 25.5777 27.0635 25.5179C27.0692 25.458 27.0596 25.398 27.0359 25.3443L25.4051 21.8886C25.3084 21.684 25.0505 21.7309 24.9764 21.9669L23.8959 25.3996L20.5601 27.8502C20.3929 27.973 20.3869 28.2634 20.5497 28.361L23.4392 30.0982V30.0982ZM28.8611 29.5187C28.6364 29.7812 28.1556 30.3187 27.7349 30.6312C27.651 30.6936 27.6456 30.8155 27.724 30.8851L29.5331 32.4908C29.642 32.5874 29.8151 32.5111 29.8131 32.3674C29.803 31.7085 29.709 30.3256 29.1278 29.5321C29.063 29.4438 28.9325 29.4356 28.8611 29.5187V29.5187Z" fill="#4B00AC"/>
<path fill-rule="evenodd" clip-rule="evenodd" d="M36.8516 33.2727L36.4863 35.1032C36.4606 35.232 36.5583 35.335 36.6631 35.2896C37.4054 34.9679 39.7587 33.7392 41.2744 30.5742C41.344 30.429 41.2262 30.2751 41.1001 30.346C40.3917 30.7437 38.851 31.5557 37.9526 31.6338C37.9526 31.6338 38.5649 31.293 38.9802 30.7038C39.0001 30.6755 39.0124 30.6421 39.0157 30.6072C39.019 30.5723 39.0131 30.5372 38.9988 30.5058L38.0135 28.4857C37.9551 28.3661 37.8005 28.3929 37.7566 28.5305L37.1157 30.5316L35.1202 31.9548C35.0202 32.0261 35.0172 32.1955 35.115 32.2529L36.8516 33.2727V33.2727ZM40.1021 32.9458C39.9679 33.0985 39.6806 33.4112 39.429 33.5927C39.3788 33.629 39.3759 33.7001 39.423 33.7408L40.5113 34.6817C40.5768 34.7383 40.6805 34.6942 40.679 34.6103C40.6716 34.2257 40.6123 33.4185 40.2621 32.9542C40.223 32.9025 40.1448 32.8974 40.1021 32.9458V32.9458Z" fill="#4B00AC"/>
<path fill-rule="evenodd" clip-rule="evenodd" d="M26.0792 18.1763L26.6545 16.8998L26.8827 18.2463L28.1201 18.1219L27.1599 18.9168L27.9579 20.0239L26.6447 19.5268L26.0663 20.8128L25.8455 19.4588L24.6135 19.5821L25.5647 18.7914L24.7767 17.6954L26.0792 18.1763Z" fill="#4B00AC"/>
<path fill-rule="evenodd" clip-rule="evenodd" d="M31.5434 14.8383L32.1187 13.5618L32.3469 14.9082L33.5843 14.7838L32.6241 15.5788L33.4221 16.6859L32.1088 16.1887L31.5305 17.4747L31.3096 16.1208L30.0776 16.2441L31.0288 15.4534L30.2409 14.3574L31.5434 14.8383Z" fill="#4B00AC"/>
<path fill-rule="evenodd" clip-rule="evenodd" d="M35.9995 19.4365L36.5748 18.16L36.803 19.5064L38.0404 19.3821L37.0802 20.177L37.8782 21.2841L36.5649 20.7869L35.9866 22.0729L35.7657 20.719L34.5338 20.8423L35.4849 20.0516L34.697 18.9556L35.9995 19.4365Z" fill="#4B00AC"/>
</svg>
